# xmcd
#
# Track frame offsets: 
#        150
#        21794
#        37935
#        68938
#        80243
#        98675
#        114264
#
# Disc length: 1675 seconds
#
# Revision: 0
# Processed by: cddbd v1.5.2PL0 Copyright (c) Steve Scherf et al.
# Submitted via: ExactAudioCopy v1.3
#
DISCID=4f068907
DTITLE=Joe Bonamassa - Rockin' Christmas Blues
DYEAR=2019
DGENRE=Blues
TTITLE0=Merry Christmas, Blues
TTITLE1=Bring Back My Cadillac
TTITLE2=Christmas Boogie ( One Little Kiss)
TTITLE3=Christmas Date Blues
TTITLE4=O Holy Night
TTITLE5=Lonesome Christmas
TTITLE6=Santa Claus Is Back In Town
EXTD=
EXTT0=
EXTT1=
EXTT2=
EXTT3=
EXTT4=
EXTT5=
EXTT6=
PLAYORDER=
